<?xml version="1.0" encoding="UTF-8" standalone="no"?>
<svg
   fill="currentColor"
   fill-rule="evenodd"
   height="120"
   style="line-height:1"
   viewBox="0 0 120 120"
   width="120"
   version="1.1"
   id="svg1"
   sodipodi:docname="logo.svg"
   inkscape:version="1.3.2 (091e20e, 2023-11-25, custom)"
   xmlns:inkscape="http://www.inkscape.org/namespaces/inkscape"
   xmlns:sodipodi="http://sodipodi.sourceforge.net/DTD/sodipodi-0.dtd"
   xmlns="http://www.w3.org/2000/svg"
   xmlns:svg="http://www.w3.org/2000/svg"
   xmlns:rdf="http://www.w3.org/1999/02/22-rdf-syntax-ns#"
   xmlns:cc="http://creativecommons.org/ns#"
   xmlns:dc="http://purl.org/dc/elements/1.1/">
  <defs
     id="defs1" />
  <sodipodi:namedview
     id="namedview1"
     pagecolor="#ffffff"
     bordercolor="#000000"
     borderopacity="0.25"
     inkscape:showpageshadow="2"
     inkscape:pageopacity="0.0"
     inkscape:pagecheckerboard="true"
     inkscape:deskcolor="#d1d1d1"
     showgrid="false"
     inkscape:zoom="14.191667"
     inkscape:cx="60"
     inkscape:cy="83.041691"
     inkscape:window-width="2880"
     inkscape:window-height="1676"
     inkscape:window-x="-12"
     inkscape:window-y="-12"
     inkscape:window-maximized="1"
     inkscape:current-layer="svg1" />
  <title
     id="title1">Ollama</title>
  <path
     d="m 40.207671,19.314028 c 0.805142,0.31698 1.532006,0.839067 2.191776,1.528966 1.099615,1.141131 2.027765,2.774514 2.735992,4.709961 0.711953,1.946635 1.174164,4.102104 1.349359,6.265032 a 18.838834,18.847302 0 0 1 7.637661,-2.371763 l 0.190105,-0.01492 c 3.242933,-0.261046 6.448593,0.32444 9.244224,1.767633 0.376467,0.197646 0.745502,0.410208 1.10707,0.633962 0.186363,-2.121907 0.641132,-4.228896 1.341904,-6.130781 0.70823,-1.939176 1.636379,-3.56883 2.732265,-4.71369 a 6.2249412,6.2277393 0 0 1 2.195503,-1.528966 c 0.95797,-0.372919 1.975579,-0.440042 2.9671,-0.156624 1.494731,0.425125 2.776995,1.37234 3.787147,2.74841 0.924423,1.256735 1.617742,2.867743 2.091133,4.799461 0.85733,3.483059 1.00643,8.066228 0.428644,13.59288 l 0.197536,0.149168 0.09692,0.07086 c 2.821726,2.148011 4.786121,5.209672 5.826098,8.763586 1.621469,5.545298 0.805142,11.765578 -1.990489,15.244908 l -0.06709,0.0783 0.0077,0.01128 c 1.554371,2.841638 2.49743,5.843633 2.698713,8.950045 l 0.0077,0.111888 c 0.23854,3.971583 -0.745502,7.969272 -3.034192,11.896105 l -0.02614,0.03743 0.03742,0.08948 c 1.759381,4.314669 2.311052,8.659171 1.632648,12.99994 l -0.02255,0.145424 A 2.4266088,2.4276996 0 0 1 82.78738,100.99076 2.4154263,2.416512 0 0 1 80.774524,98.2237 c 0.622496,-3.852249 0.03742,-7.715687 -1.789206,-11.646248 a 2.3967888,2.3978662 0 0 1 0.149101,-2.300907 l 0.01486,-0.02256 c 2.251418,-3.445769 3.183293,-6.82441 2.98201,-10.143384 -0.171448,-2.905038 -1.21144,-5.757865 -2.98201,-8.476442 a 2.4005163,2.4015953 0 0 1 0.670953,-3.304057 l 0.03331,-0.02256 c 0.905725,-0.592875 1.740688,-2.106928 2.161896,-4.176623 a 15.763639,15.770724 0 0 0 -0.354141,-7.361418 c -0.764134,-2.610225 -2.161947,-4.788069 -4.118889,-6.276014 -2.217871,-1.69305 -5.155146,-2.509741 -8.871474,-2.274803 a 2.4340639,2.435158 0 0 1 -2.355787,-1.383527 c -1.170436,-2.479909 -2.877639,-4.255001 -5.006045,-5.355111 a 12.256052,12.261561 0 0 0 -6.605151,-1.238089 c -4.640741,0.369189 -8.733548,2.987077 -9.952446,6.287406 a 2.4303364,2.4314288 0 0 1 -2.273781,1.584904 c -3.977253,0.0075 -7.056176,0.939755 -9.307592,2.621617 -1.94576,1.454383 -3.272753,3.486788 -3.973525,5.921944 a 15.170965,15.177784 0 0 0 -0.253471,7.033245 c 0.417482,2.080884 1.233806,3.803771 2.169411,4.732337 l 0.02983,0.02615 c 0.790232,0.771943 0.95797,1.976467 0.406298,2.927406 -1.341904,2.319552 -2.344604,5.77651 -2.508614,9.099212 -0.186378,3.79631 0.693317,7.092912 2.680079,9.457214 l 0.05964,0.07087 a 2.3967888,2.3978662 0 0 1 0.354115,2.573137 c -2.147056,4.60927 -2.806825,8.398119 -2.094871,11.381469 a 2.4303364,2.4314288 0 0 1 -4.73021,1.111296 c -0.905785,-3.796362 -0.290743,-8.144592 1.763112,-13.044741 l 0.05218,-0.130503 -0.02983,-0.04461 a 16.173665,16.180935 0 0 1 -2.229039,-4.881658 l -0.01866,-0.07087 a 21.485366,21.495024 0 0 1 -0.65975,-6.656587 c 0.16401,-3.393558 1.036248,-6.869156 2.318511,-9.658588 l 0.04475,-0.09697 -0.0074,-0.0077 C 25.45049,62.91938 24.64162,60.924268 24.194319,58.71659 l -0.01866,-0.08948 a 19.949632,19.9586 0 0 1 0.346678,-9.285693 c 0.976607,-3.412205 2.896275,-6.343344 5.725455,-8.461521 0.22365,-0.167813 0.458483,-0.335627 0.693317,-0.492253 -0.592674,-5.567673 -0.443574,-10.180675 0.417481,-13.686109 0.473393,-1.931719 1.170438,-3.542727 2.09486,-4.799462 1.006428,-1.37234 2.288691,-2.319553 3.783422,-2.74841 0.991518,-0.283417 2.012856,-0.220021 2.970826,0.156626 z M 55.550098,53.21232 c 3.488951,0 6.709516,1.167239 9.117491,3.188456 2.34833,1.965278 3.746143,4.605543 3.746143,7.234619 0,3.311513 -1.513367,5.892111 -4.223264,7.540409 -2.311058,1.398447 -5.408616,2.077156 -8.957208,2.077156 -3.761058,0 -6.974167,-0.965856 -9.292677,-2.737221 -2.299876,-1.752715 -3.589594,-4.213979 -3.589594,-6.880344 0,-2.636532 1.483549,-5.284257 3.936252,-7.256996 2.489972,-2.002573 5.777637,-3.166079 9.262857,-3.166079 z m 0,3.341352 a 11.443455,11.448599 0 0 0 -7.141904,2.423969 c -1.718382,1.379802 -2.691261,3.113873 -2.691261,4.661482 0,1.596092 0.782775,3.091495 2.273779,4.228896 1.696016,1.294024 4.189715,2.043594 7.242548,2.043594 2.978279,0 5.490624,-0.548191 7.201548,-1.588636 1.72584,-1.044172 2.609259,-2.55822 2.609259,-4.687582 0,-1.577448 -0.916971,-3.318974 -2.545892,-4.683854 -1.804111,-1.510325 -4.249359,-2.397869 -6.948077,-2.397869 z m 2.46761,4.512314 0.01486,0.01487 c 0.447301,0.563108 0.35412,1.379796 -0.208761,1.827299 l -1.088367,0.85771 v 1.663215 a 1.3978162,1.3984445 0 0 1 -1.401539,1.391037 1.3978162,1.3984445 0 0 1 -1.401545,-1.390985 v -1.715426 l -1.010157,-0.812961 a 1.2934459,1.2940273 0 0 1 -0.193846,-1.827299 1.315811,1.3164024 0 0 1 1.841388,-0.19019 l 0.801417,0.64142 0.820052,-0.648881 a 1.315811,1.3164024 0 0 1 1.826479,0.19019 z M 39.231063,53.909679 c 1.78175,0 3.231751,1.454381 3.231751,3.248124 a 3.2429335,3.2443912 0 0 1 -3.235478,3.248118 3.2429335,3.2443912 0 0 1 -3.231751,-3.24439 3.2429335,3.2443912 0 0 1 3.231751,-3.251852 z m 32.451696,0 c 1.789206,0 3.23548,1.454381 3.23548,3.248124 a 3.2429335,3.2443912 0 0 1 -3.23548,3.248118 3.2429335,3.2443912 0 0 1 -3.231749,-3.24439 3.2429335,3.2443912 0 0 1 3.231749,-3.251852 z m -33.20838,-30.083337 -0.01117,0.0074 a 2.4564289,2.4575331 0 0 0 -1.062349,0.887569 l -0.01866,0.02236 c -0.514377,0.704834 -0.961678,1.741548 -1.297154,3.1027 -0.633676,2.580596 -0.805142,6.082302 -0.462211,10.374593 1.602829,-0.477335 3.351031,-0.77567 5.233424,-0.883816 l 0.03726,-0.0037 0.07082,-0.126795 c 0.171477,-0.30579 0.354125,-0.600395 0.551683,-0.891272 0.458483,-2.875202 0.082,-6.309782 -0.94306,-9.114129 -0.499486,-1.357424 -1.10707,-2.42397 -1.688562,-3.031827 a 2.3408761,2.3419283 0 0 0 -0.398845,-0.33563 z m 34.196174,0.149168 -0.0077,0.0037 a 2.3408761,2.3419283 0 0 0 -0.398865,0.335625 c -0.581492,0.607857 -1.192804,1.678133 -1.688562,3.035557 -1.080976,2.960973 -1.442543,6.623033 -0.857325,9.591464 l 0.216193,0.36173 0.02973,0.05221 h 0.111838 a 19.323411,19.332097 0 0 1 5.46453,0.790587 c 0.320907,-4.191598 0.141976,-7.61872 -0.476773,-10.150836 -0.335515,-1.361153 -0.782796,-2.397866 -1.300916,-3.102683 l -0.01486,-0.02236 a 2.4564289,2.4575331 0 0 0 -1.062386,-0.891293 h -0.01486 z"
     id="path1"
     style="stroke-width:0.999997" />
  <ellipse
     style="fill:none;stroke:#002147;stroke-width:3.2126;stroke-linecap:round;stroke-linejoin:round;stroke-miterlimit:0.5;stroke-dasharray:none;stroke-opacity:1;paint-order:stroke fill markers"
     id="path2"
     cx="55.471043"
     cy="60"
     rx="52.364742"
     ry="52.388279" />
  <metadata
     id="metadata2">
    <rdf:RDF>
      <cc:Work
         rdf:about="">
        <dc:title>Ollama</dc:title>
      </cc:Work>
    </rdf:RDF>
  </metadata>
  <path
     d="m 80.942615,117.99931 2.076154,-3.29068 2.099482,-3.31401 -3.84905,-6.06789 h 2.30943 l 1.702913,2.77723 q 0.233276,0.46676 0.793137,1.40028 0.303259,0.46677 0.443225,0.7235 h 0.116637 q 0.699827,-1.37696 1.119723,-2.12378 l 1.562948,-2.77723 h 2.216119 l -3.849049,6.27794 4.175635,6.39464 h -1.166378 -1.166379 l -1.866206,-2.96394 q -0.653171,-1.19024 -1.376327,-2.2638 h -0.116638 q -0.27993,0.44344 -0.769809,1.35361 -0.349915,0.60679 -0.513206,0.91019 l -1.702913,2.96394 z m 17.89225,0.30338 q -2.449396,0 -4.082326,-1.75035 -1.772896,-1.84371 -1.772896,-4.87765 0,-3.03395 1.772896,-4.92434 Q 96.385469,105 98.834865,105 q 2.449405,0 4.082325,1.75035 1.7729,1.8437 1.7729,4.92434 0,3.03394 -1.7729,4.87765 -1.63292,1.75035 -4.082325,1.75035 z m 0,-1.7737 q 1.656265,0 2.659355,-1.33025 1.02641,-1.35361 1.02641,-3.52405 0,-2.19378 -1.02641,-3.52406 -0.97977,-1.35361 -2.659355,-1.35361 -1.632931,0 -2.659344,1.35361 -1.003086,1.33028 -1.003086,3.52406 0,2.19378 1.003086,3.52405 1.003085,1.33025 2.659344,1.33025 z m 9.214425,1.47032 v -6.32462 -6.34796 h 1.74956 l 0.20995,1.84371 h 0.0467 Q 112.17829,105 114.30111,105 q 3.87237,0 3.87237,4.97101 v 8.0283 h -2.12281 v -7.74824 q 0,-1.7737 -0.58318,-2.56719 -0.55987,-0.81683 -1.81956,-0.81683 -0.9331,0 -1.74956,0.4901 -0.6765,0.42007 -1.70291,1.44695 v 9.19521 h -1.07307 z"
     id="text2"
     style="font-size:4px;font-family:'GenSekiGothic2 TW';-inkscape-font-specification:'GenSekiGothic2 TW, Normal';text-align:center;text-anchor:middle;fill:#002147;stroke:#002147;stroke-width:0;stroke-linecap:round;stroke-linejoin:round;stroke-miterlimit:0.5;paint-order:stroke fill markers"
     aria-label="xon" />
</svg>
