<?xml version="1.0" encoding="UTF-8" standalone="no"?>
<svg
   fill="currentColor"
   fill-rule="evenodd"
   height="1em"
   style="flex:none;line-height:1"
   viewBox="0 0 24 24"
   width="1em"
   version="1.1"
   id="svg1"
   sodipodi:docname="ollama.ox.path.svg"
   inkscape:version="1.3.2 (091e20e, 2023-11-25, custom)"
   xmlns:inkscape="http://www.inkscape.org/namespaces/inkscape"
   xmlns:sodipodi="http://sodipodi.sourceforge.net/DTD/sodipodi-0.dtd"
   xmlns="http://www.w3.org/2000/svg"
   xmlns:svg="http://www.w3.org/2000/svg"
   xmlns:rdf="http://www.w3.org/1999/02/22-rdf-syntax-ns#"
   xmlns:cc="http://creativecommons.org/ns#"
   xmlns:dc="http://purl.org/dc/elements/1.1/">
  <defs
     id="defs1" />
  <sodipodi:namedview
     id="namedview1"
     pagecolor="#ffffff"
     bordercolor="#000000"
     borderopacity="0.25"
     inkscape:showpageshadow="2"
     inkscape:pageopacity="0.0"
     inkscape:pagecheckerboard="true"
     inkscape:deskcolor="#d1d1d1"
     showgrid="false"
     inkscape:zoom="57.333333"
     inkscape:cx="16.133721"
     inkscape:cy="12.218023"
     inkscape:window-width="2880"
     inkscape:window-height="1676"
     inkscape:window-x="-12"
     inkscape:window-y="-12"
     inkscape:window-maximized="1"
     inkscape:current-layer="svg1" />
  <title
     id="title1">Ollama</title>
  <path
     d="M 8.2720653,3.5656077 C 8.4291513,3.6274237 8.5709649,3.7292389 8.6996881,3.86378 8.9142267,4.0863184 9.0953119,4.4048537 9.2334893,4.7822963 9.3723937,5.1619206 9.4625727,5.5822708 9.4967537,6.0040756 A 3.6755194,3.6755194 0 0 1 10.986887,5.5415448 l 0.03709,-0.00291 c 0.632707,-0.050908 1.258142,0.063271 1.803579,0.3447163 0.07345,0.038544 0.14545,0.079997 0.215993,0.1236324 0.03636,-0.413805 0.125087,-0.824701 0.26181,-1.1955983 0.138178,-0.3781698 0.319263,-0.6959779 0.533074,-0.9192435 a 1.2145068,1.2145068 0 0 1 0.42835,-0.2981724 c 0.186903,-0.072725 0.385442,-0.085815 0.578891,-0.030544 0.291627,0.082906 0.541801,0.2676278 0.738885,0.5359829 0.180358,0.2450831 0.315627,0.5592549 0.407987,0.9359702 0.167268,0.6792512 0.196358,1.5730409 0.08363,2.6508248 l 0.03854,0.02909 0.01891,0.013818 c 0.550528,0.4188958 0.933788,1.0159677 1.136691,1.7090366 0.316354,1.0814202 0.157086,2.2944722 -0.388351,2.9729962 l -0.01309,0.01527 0.0015,0.0022 c 0.303263,0.554164 0.487257,1.1396 0.526528,1.745399 l 0.0015,0.02182 c 0.04654,0.774521 -0.14545,1.554133 -0.591981,2.319927 l -0.0051,0.0073 0.0073,0.01745 c 0.343261,0.841428 0.450894,1.688674 0.318535,2.535192 l -0.0044,0.02836 a 0.47343948,0.47343948 0 0 1 -0.543255,0.389788 0.47125773,0.47125773 0 0 1 -0.392715,-0.539619 c 0.121451,-0.751249 0.0073,-1.50468 -0.34908,-2.271201 a 0.46762149,0.46762149 0 0 1 0.02909,-0.448713 l 0.0029,-0.0044 c 0.439259,-0.671979 0.621071,-1.330867 0.5818,-1.978119 -0.03345,-0.566528 -0.236356,-1.122874 -0.5818,-1.653039 a 0.46834874,0.46834874 0 0 1 0.130905,-0.644343 l 0.0065,-0.0044 c 0.17671,-0.11562 0.339614,-0.410884 0.421793,-0.814507 A 3.0755385,3.0755385 0 0 0 16.359806,9.6999181 C 16.210721,9.1908833 15.938003,8.7661695 15.556197,8.4759969 15.123483,8.1458256 14.550411,7.986558 13.825343,8.0323747 A 0.47489398,0.47489398 0 0 1 13.365721,7.7625651 C 13.137365,7.2789441 12.804284,6.9327733 12.389025,6.7182347 A 2.3911967,2.3911967 0 0 0 11.100338,6.4767878 C 10.194914,6.5487855 9.3963937,7.0593147 9.1585826,7.7029306 A 0.47416673,0.47416673 0 0 1 8.7149603,8.0120117 C 7.938985,8.0134662 7.3382769,8.1952786 6.8990181,8.5232682 6.5193938,8.8068955 6.260493,9.2032465 6.1237701,9.6781401 a 2.9599058,2.9599058 0 0 0 -0.049453,1.3715929 c 0.081452,0.405805 0.2407196,0.741795 0.4232592,0.92288 l 0.00582,0.0051 c 0.1541769,0.150541 0.1869032,0.385442 0.07927,0.57089 -0.2618098,0.452349 -0.45744,1.12651 -0.4894389,1.774489 -0.036363,0.74034 0.1352684,1.383229 0.5228924,1.844305 l 0.011636,0.01382 a 0.46762149,0.46762149 0 0 1 0.069089,0.501802 c -0.4188978,0.89888 -0.547621,1.637765 -0.4087163,2.219565 a 0.47416673,0.47416673 0 0 1 -0.9228798,0.21672 c -0.1767216,-0.74035 -0.056725,-1.588323 0.3439891,-2.543929 l 0.010181,-0.02545 -0.00582,-0.0087 a 3.155536,3.155536 0 0 1 -0.4348928,-0.952 l -0.00364,-0.01382 A 4.1918666,4.1918666 0 0 1 5.1463466,14.277266 C 5.1783456,13.615469 5.348522,12.937673 5.5986958,12.39369 l 0.00873,-0.01891 -0.00145,-0.0015 C 5.3928842,12.069337 5.2350711,11.680259 5.1478011,11.249727 l -0.00364,-0.01745 A 3.8922398,3.8922398 0 0 1 5.2117991,9.4214214 C 5.4023385,8.755988 5.776872,8.1843699 6.3288544,7.7712921 6.3724894,7.7385659 6.4183061,7.7058396 6.4641229,7.6752951 6.3484902,6.5895115 6.3775802,5.6899038 6.5455748,5.0062892 6.6379355,4.6295739 6.7739312,4.315402 6.9542891,4.0703189 7.1506465,3.8026911 7.4008203,3.6179697 7.6924474,3.534336 7.8858958,3.4790651 8.0851622,3.4914283 8.2720653,3.5648805 Z m 2.9933587,6.6106983 c 0.680706,0 1.309049,0.22763 1.778853,0.621799 0.458167,0.38326 0.730885,0.898153 0.730885,1.410864 0,0.645797 -0.295263,1.149054 -0.823973,1.470498 -0.450895,0.272719 -1.055239,0.405078 -1.747581,0.405078 -0.733795,0 -1.3606833,-0.188357 -1.8130323,-0.533801 -0.4487135,-0.341807 -0.7003418,-0.821792 -0.7003418,-1.341775 0,-0.514165 0.2894453,-1.030513 0.7679758,-1.415228 0.485802,-0.390533 1.1272363,-0.617435 1.8072143,-0.617435 z m 0,0.651616 a 2.2326562,2.2326562 0 0 0 -1.3934093,0.472712 c -0.335262,0.269083 -0.525074,0.607254 -0.525074,0.909062 0,0.311263 0.152722,0.60289 0.443622,0.824701 0.3308983,0.252355 0.8174273,0.398533 1.4130453,0.398533 0.581072,0 1.071239,-0.106906 1.405046,-0.309809 0.336717,-0.20363 0.509075,-0.498893 0.509075,-0.914152 0,-0.307627 -0.178904,-0.647252 -0.496712,-0.913425 -0.351988,-0.294537 -0.829064,-0.467622 -1.355593,-0.467622 z m 0.481439,0.879972 0.0029,0.0029 c 0.08727,0.109815 0.06909,0.269082 -0.04073,0.356352 l -0.212344,0.167267 v 0.324353 a 0.2727186,0.2727186 0 0 1 -0.273445,0.271274 0.2727186,0.2727186 0 0 1 -0.273446,-0.271264 v -0.334535 l -0.197085,-0.15854 a 0.25235561,0.25235561 0 0 1 -0.03782,-0.356352 0.25671911,0.25671911 0 0 1 0.359261,-0.03709 l 0.156359,0.125087 0.159995,-0.126542 a 0.25671911,0.25671911 0 0 1 0.356352,0.03709 z M 8.0815259,10.312302 c 0.3476254,0 0.6305254,0.283627 0.6305254,0.633435 A 0.63270714,0.63270714 0 0 1 8.0807987,11.579171 0.63270714,0.63270714 0 0 1 7.4502733,10.946464 0.63270714,0.63270714 0 0 1 8.0807987,10.312302 Z m 6.3314341,0 c 0.34908,0 0.631253,0.283627 0.631253,0.633435 a 0.63270714,0.63270714 0 0 1 -0.631253,0.633434 0.63270714,0.63270714 0 0 1 -0.630525,-0.632707 0.63270714,0.63270714 0 0 1 0.630525,-0.634162 z m -6.4790657,-5.8667223 -0.00218,0.00145 A 0.47925748,0.47925748 0 0 0 7.7244464,4.6201196 l -0.00364,0.00436 C 7.6204497,4.7619333 7.5331798,4.9641087 7.4677273,5.2295548 7.3440949,5.7328115 7.3106414,6.4156989 7.3775483,7.2527631 7.6902657,7.1596752 8.0313457,7.1014952 8.3986068,7.080405 l 0.00727,-7.273e-4 0.013818,-0.024727 C 8.4531505,6.9953168 8.4887857,6.9378641 8.5273299,6.8811386 8.6167816,6.3204292 8.5433294,5.6506323 8.3433358,5.1037406 8.2458844,4.8390217 8.1273427,4.6310284 8.0138917,4.5124867 a 0.45671274,0.45671274 0 0 0 -0.077816,-0.065453 z m 6.6717877,0.02909 -0.0015,7.273e-4 a 0.45671274,0.45671274 0 0 0 -0.07782,0.065452 c -0.113451,0.1185417 -0.23272,0.3272623 -0.329444,0.5919812 -0.210902,0.5774362 -0.281445,1.2915953 -0.167267,1.8704859 l 0.04218,0.070543 0.0058,0.010181 h 0.02182 a 3.7700619,3.7700619 0 0 1 1.066148,0.1541769 c 0.06261,-0.8174274 0.0277,-1.4857698 -0.09302,-1.9795722 -0.06546,-0.2654461 -0.152726,-0.4676215 -0.253813,-0.6050717 l -0.0029,-0.00436 A 0.47925748,0.47925748 0 0 0 14.608591,4.475397 h -0.0029 z"
     id="path1"
     style="stroke-width:0.999997" />
  <circle
     style="fill:none;stroke:#002147;stroke-width:0.566929;stroke-linecap:round;stroke-linejoin:round;stroke-miterlimit:0.5;stroke-dasharray:none;stroke-opacity:1;paint-order:stroke fill markers"
     id="path2"
     cx="11.25"
     cy="12"
     r="10.216536" />
  <metadata
     id="metadata2">
    <rdf:RDF>
      <cc:Work
         rdf:about="">
        <dc:title>Ollama</dc:title>
      </cc:Work>
    </rdf:RDF>
  </metadata>
  <path
     d="m 17.000001,23.127909 0.356,-0.564 0.36,-0.568 -0.66,-1.04 h 0.396 l 0.292,0.476 q 0.04,0.08 0.136,0.24 0.052,0.08 0.076,0.124 h 0.02 q 0.12,-0.236 0.192,-0.364 l 0.268,-0.476 h 0.38 l -0.66,1.076 0.716,1.096 h -0.2 -0.2 l -0.32,-0.508 q -0.112,-0.204 -0.236,-0.388 h -0.02 q -0.048,0.076 -0.132,0.232 -0.06,0.104 -0.088,0.156 l -0.292,0.508 z m 3.068,0.052 q -0.42,0 -0.7,-0.3 -0.304,-0.316 -0.304,-0.836 0,-0.52 0.304,-0.844 0.28,-0.3 0.7,-0.3 0.42,0 0.7,0.3 0.304,0.316 0.304,0.844 0,0.52 -0.304,0.836 -0.28,0.3 -0.7,0.3 z m 0,-0.304 q 0.284,0 0.456,-0.228 0.176,-0.232 0.176,-0.604 0,-0.376 -0.176,-0.604 -0.168,-0.232 -0.456,-0.232 -0.28,0 -0.456,0.232 -0.172,0.228 -0.172,0.604 0,0.376 0.172,0.604 0.172,0.228 0.456,0.228 z m 1.580004,0.252 v -1.084 -1.088 h 0.3 l 0.036,0.316 h 0.008 q 0.364,-0.372 0.728,-0.372 0.664,0 0.664,0.852 v 1.376 h -0.364 v -1.328 q 0,-0.304 -0.1,-0.44 -0.096,-0.14 -0.312,-0.14 -0.16,0 -0.3,0.084 -0.116,0.072 -0.292,0.248 v 1.576 h -0.184 z"
     id="text2"
     style="font-size:4px;font-family:'GenSekiGothic2 TW';-inkscape-font-specification:'GenSekiGothic2 TW, Normal';text-align:center;text-anchor:middle;fill:#002147;stroke:#002147;stroke-width:0;stroke-linecap:round;stroke-linejoin:round;stroke-miterlimit:0.5;paint-order:stroke fill markers"
     aria-label="xon" />
</svg>
